<svg xmlns="http://www.w3.org/2000/svg" xmlns:svg="http://www.w3.org/2000/svg" xmlns:xlink="http://www.w3.org/1999/xlink" id="svg1" width="175.696" height="175.696" version="1.1" viewBox="0 0 46.486 46.486"><defs id="defs1"><linearGradient id="linearGradient364"><stop style="stop-color:#454f54;stop-opacity:1" id="stop363" offset="0"/><stop style="stop-color:#110d26;stop-opacity:1" id="stop364" offset="1"/></linearGradient><linearGradient id="linearGradient115" x1="106.974" x2="153.461" y1="100.334" y2="146.82" gradientUnits="userSpaceOnUse" xlink:href="#linearGradient364"/><filter style="color-interpolation-filters:sRGB" id="filter605" width="1.101" height="1.078" x="-.042" y="-.032"><feFlood id="feFlood603" flood-color="#000" flood-opacity="1" in="SourceGraphic" result="flood"/><feGaussianBlur id="feGaussianBlur603" in="SourceGraphic" result="blur" stdDeviation=".5"/><feOffset id="feOffset603" dx=".5" dy=".5" in="blur" result="offset"/><feComposite id="feComposite604" in="flood" in2="offset" operator="out" result="comp1"/><feComposite id="feComposite605" in="comp1" in2="SourceGraphic" operator="atop" result="comp2"/></filter></defs><g id="g662" transform="translate(-126.36229,-23.814237)"><path id="path658" d="m 146.12907,31.570165 c 0.003,1.071987 0.50061,2.082587 1.34824,2.73885 -4.18467,4.7703 -8.24963,10.2497 -8.24963,15.61507 0,2.43935 1.56795,5.56156 3.48351,8.1349 h -0.2403 c -3.99548,-1.65e-4 -7.23458,3.238707 -7.2347,7.23419 v 0.2067 h 28.7383 v -0.2067 c -1.2e-4,-3.99528 -3.2389,-7.234067 -7.23418,-7.23419 h -6.07508 l 7.12204,-1.90841 c 1.28218,-2.10885 2.19625,-4.36632 2.19625,-6.22649 0,-4.43724 -2.78303,-8.95253 -6.11229,-13.08086 -1.81013,2.99847 -3.12986,5.93957 -3.8225,8.71162 -0.56843,2.27492 -0.55841,4.19814 -0.56276,4.18424 -0.70223,-2.24281 -1.38144,-5.98668 -1.00201,-8.30337 0.39757,-2.42744 1.81503,-4.77931 3.0749,-6.56143 1.25988,-1.782121 1.52007,-2.531791 1.52296,-3.30444 -1.8e-4,-1.920021 -1.55677,-3.47638 -3.47653,-3.476077 -1.91977,3.04e-4 -3.47604,1.556579 -3.47622,3.476397 z" style="font-variation-settings:normal;fill:none;fill-opacity:1;stroke:#fff;stroke-width:2;stroke-linecap:round;stroke-linejoin:miter;stroke-miterlimit:4;stroke-dasharray:none;stroke-dashoffset:0;stroke-opacity:.5;paint-order:stroke markers fill;stop-color:#000"/><path id="circle29" d="m 130.21745,104.61316 c -1.91982,1.8e-4 -3.47609,1.55645 -3.47627,3.47627 0.003,1.07199 0.50061,2.08259 1.34824,2.73885 -4.18467,4.7703 -8.24963,10.2497 -8.24963,15.61507 0,2.43935 1.56795,5.56156 3.48351,8.1349 h -0.2403 c -3.99548,-1.6e-4 -7.23458,3.23871 -7.2347,7.23419 v 0.2067 h 28.7383 v -0.2067 c -1.2e-4,-3.99528 -3.2389,-7.23407 -7.23418,-7.23419 h -6.07508 l 7.12204,-1.90841 c 1.28218,-2.10885 2.19625,-4.36632 2.19625,-6.22649 0,-4.43724 -2.78303,-8.95253 -6.11229,-13.08086 -1.81013,2.99847 -3.12986,5.93957 -3.8225,8.71162 -0.56843,2.27492 -0.55841,4.19814 -0.56276,4.18424 -0.70223,-2.24281 -1.38144,-5.98668 -1.00201,-8.30337 0.39757,-2.42744 1.81503,-4.77931 3.0749,-6.56143 1.25988,-1.78212 1.52007,-2.53179 1.52296,-3.30444 -1.8e-4,-1.92002 -1.55677,-3.47638 -3.47679,-3.47627 z" transform="translate(19.387887,-76.519265)" style="font-variation-settings:normal;display:inline;opacity:1;fill:url(#linearGradient115);fill-opacity:1;stroke:none;stroke-width:1;stroke-linecap:round;stroke-linejoin:miter;stroke-miterlimit:4;stroke-dasharray:none;stroke-dashoffset:0;stroke-opacity:.459816;paint-order:stroke markers fill;filter:url(#filter605);stop-color:#000;stop-opacity:1"/></g></svg>