<svg xmlns="http://www.w3.org/2000/svg" xmlns:svg="http://www.w3.org/2000/svg" xmlns:xlink="http://www.w3.org/1999/xlink" id="svg1" width="175.696" height="175.696" version="1.1" viewBox="0 0 46.486 46.486"><defs id="defs1"><linearGradient id="linearGradient358"><stop style="stop-color:#454f54;stop-opacity:1" id="stop357" offset="0"/><stop style="stop-color:#110d26;stop-opacity:1" id="stop358" offset="1"/></linearGradient><linearGradient id="linearGradient96" x1="33.437" x2="79.924" y1="70.274" y2="116.76" gradientUnits="userSpaceOnUse" xlink:href="#linearGradient358"/><filter style="color-interpolation-filters:sRGB" id="filter611" width="1.081" height="1.076" x="-.033" y="-.032"><feFlood id="feFlood609" flood-color="#000" flood-opacity="1" in="SourceGraphic" result="flood"/><feGaussianBlur id="feGaussianBlur609" in="SourceGraphic" result="blur" stdDeviation=".5"/><feOffset id="feOffset609" dx=".5" dy=".5" in="blur" result="offset"/><feComposite id="feComposite610" in="flood" in2="offset" operator="out" result="comp1"/><feComposite id="feComposite611" in="comp1" in2="SourceGraphic" operator="atop" result="comp2"/></filter></defs><g id="g665" transform="translate(-33.38977,-70.300485)"><path id="path661" d="m 56.632719,73.984115 a 3.4765904,3.4765904 0 0 0 -3.476274,3.47679 3.4765904,3.4765904 0 0 0 1.472778,2.831352 c -0.563163,0.285066 -1.001498,0.66907 -1.43247,1.044897 -0.06616,0.05769 -0.130913,0.117997 -0.195854,0.177767 -1.16995,-0.455881 -2.394407,-0.733246 -3.626652,-0.808736 -1.710866,-0.104811 -3.434501,0.174585 -5.041036,0.882633 -3.213072,1.416098 -5.675623,4.923573 -5.675623,9.322429 0,3.24785 1.541211,6.518243 4.150135,9.576163 1.244118,1.45821 2.75762,2.85409 4.527889,4.10155 a 7.2344021,7.2344021 0 0 0 -6.130375,7.13755 v 0.20671 h 30.854964 v -0.20671 a 7.2344021,7.2344021 0 0 0 -7.234184,-7.23418 h -3.840592 l 7.570597,-2.02882 c 0.689984,-0.64002 1.326226,-1.301 1.902209,-1.9761 2.608924,-3.05792 4.148584,-6.328313 4.148584,-9.576163 0,-4.398856 -2.461,-7.906331 -5.674072,-9.322429 -1.606535,-0.708048 -3.33017,-0.987444 -5.041036,-0.882633 -1.232365,0.0755 -2.456597,0.352774 -3.626652,0.808736 -0.06491,-0.05974 -0.129213,-0.120104 -0.195337,-0.177767 -0.430852,-0.375723 -0.869517,-0.759854 -1.432987,-1.044897 a 3.4765904,3.4765904 0 0 0 1.472778,-2.831352 3.4765904,3.4765904 0 0 0 -3.47679,-3.47679 z m -5.17e-4,12.495361 c 0.208279,0.243456 0.388836,0.397062 0.609265,0.744141 0.80802,1.27227 1.48053,3.098361 1.48053,4.828129 0,1.737438 -0.960138,4.730295 -2.089795,7.687386 -1.129521,-2.956845 -2.088245,-5.950109 -2.088245,-7.687386 0,-1.729768 0.67251,-3.555859 1.48053,-4.828129 0.220146,-0.346633 0.399647,-0.500841 0.607715,-0.744141 z m -8.230505,0.24753 c 0.372047,-0.01533 0.759922,0.0092 1.149283,0.06615 -0.609806,1.570017 -1.006657,3.343019 -1.006657,5.258594 0,2.214924 0.486248,4.563187 1.184424,6.819738 -0.901512,-0.732469 -1.693368,-1.501222 -2.356445,-2.278414 -1.913142,-2.242383 -2.71508,-4.591353 -2.71508,-5.681823 0,-2.479816 0.841078,-3.278725 2.095996,-3.831808 0.470596,-0.207405 1.039092,-0.327318 1.648479,-0.352433 z m 16.462561,0 c 0.609384,0.02511 1.177882,0.145028 1.648478,0.352433 1.254921,0.553083 2.093929,1.351992 2.093929,3.831808 0,1.09047 -0.799871,3.43944 -2.713013,5.681823 -0.663135,0.777261 -1.454832,1.545887 -2.356445,2.278414 0.698176,-2.256551 1.184424,-4.604814 1.184424,-6.819738 0,-1.915596 -0.39684,-3.688564 -1.006657,-5.258594 0.38939,-0.057 0.777207,-0.08148 1.149284,-0.06615 z" style="color:#000;font-variation-settings:normal;fill:none;stroke:#fff;stroke-width:2;stroke-linecap:round;stroke-linejoin:miter;stroke-miterlimit:4;stroke-dasharray:none;stroke-dashoffset:0;stroke-opacity:.5;paint-order:stroke markers fill;stop-color:#000"/><path id="path50" d="m 56.680365,73.957645 a 3.4765904,3.4765904 0 0 0 -3.476274,3.47679 3.4765904,3.4765904 0 0 0 1.472778,2.831352 c -0.563163,0.285066 -1.001498,0.66907 -1.43247,1.044897 -0.06616,0.05769 -0.130913,0.117997 -0.195854,0.177767 -1.16995,-0.455881 -2.394407,-0.733246 -3.626652,-0.808736 -1.710866,-0.104811 -3.434501,0.174585 -5.041036,0.882633 -3.213072,1.416098 -5.675623,4.923573 -5.675623,9.322429 0,3.24785 1.541211,6.518243 4.150135,9.576163 1.244118,1.45821 2.75762,2.85409 4.527889,4.10155 a 7.2344021,7.2344021 0 0 0 -6.130375,7.13755 v 0.20671 h 30.854964 v -0.20671 a 7.2344021,7.2344021 0 0 0 -7.234184,-7.23418 h -3.840592 l 7.570597,-2.02882 c 0.689984,-0.64002 1.326226,-1.301 1.902209,-1.9761 2.608924,-3.05792 4.148584,-6.328313 4.148584,-9.576163 0,-4.398856 -2.461,-7.906331 -5.674072,-9.322429 -1.606535,-0.708048 -3.33017,-0.987444 -5.041036,-0.882633 -1.232365,0.0755 -2.456597,0.352774 -3.626652,0.808736 -0.06491,-0.05974 -0.129213,-0.120104 -0.195337,-0.177767 -0.430852,-0.375723 -0.869517,-0.759854 -1.432987,-1.044897 a 3.4765904,3.4765904 0 0 0 1.472778,-2.831352 3.4765904,3.4765904 0 0 0 -3.47679,-3.47679 z m -5.17e-4,12.495361 c 0.208279,0.243456 0.388836,0.397062 0.609265,0.744141 0.80802,1.27227 1.48053,3.098361 1.48053,4.828129 0,1.737438 -0.960138,4.730295 -2.089795,7.687386 -1.129521,-2.956845 -2.088245,-5.950109 -2.088245,-7.687386 0,-1.729768 0.67251,-3.555859 1.48053,-4.828129 0.220146,-0.346633 0.399647,-0.500841 0.607715,-0.744141 z m -8.230505,0.24753 c 0.372047,-0.01533 0.759922,0.0092 1.149283,0.06615 -0.609806,1.570017 -1.006657,3.343019 -1.006657,5.258594 0,2.214924 0.486248,4.563187 1.184424,6.819738 -0.901512,-0.732469 -1.693368,-1.501222 -2.356445,-2.278414 -1.913142,-2.242383 -2.71508,-4.591353 -2.71508,-5.681823 0,-2.479816 0.841078,-3.278725 2.095996,-3.831808 0.470596,-0.207405 1.039092,-0.327318 1.648479,-0.352433 z m 16.462561,0 c 0.609384,0.02511 1.177882,0.145028 1.648478,0.352433 1.254921,0.553083 2.093929,1.351992 2.093929,3.831808 0,1.09047 -0.799871,3.43944 -2.713013,5.681823 -0.663135,0.777261 -1.454832,1.545887 -2.356445,2.278414 0.698176,-2.256551 1.184424,-4.604814 1.184424,-6.819738 0,-1.915596 -0.39684,-3.688564 -1.006657,-5.258594 0.38939,-0.057 0.777207,-0.08148 1.149284,-0.06615 z" transform="translate(-0.04764576,0.02647)" style="color:#000;font-variation-settings:normal;opacity:1;fill:url(#linearGradient96);stroke:none;stroke-width:1;stroke-linecap:round;stroke-linejoin:miter;stroke-miterlimit:4;stroke-dasharray:none;stroke-dashoffset:0;stroke-opacity:.459816;paint-order:stroke markers fill;filter:url(#filter611);stop-color:#000;stop-opacity:1"/></g></svg>