<svg xmlns="http://www.w3.org/2000/svg" xmlns:svg="http://www.w3.org/2000/svg" xmlns:xlink="http://www.w3.org/1999/xlink" id="svg1" width="175.696" height="175.696" version="1.1" viewBox="0 0 46.486 46.486"><defs id="defs1"><linearGradient id="linearGradient356"><stop style="stop-color:#454f54;stop-opacity:1" id="stop355" offset="0"/><stop style="stop-color:#110d26;stop-opacity:1" id="stop356" offset="1"/></linearGradient><filter style="color-interpolation-filters:sRGB" id="filter609" width="1.101" height="1.079" x="-.042" y="-.033"><feFlood id="feFlood607" flood-color="#000" flood-opacity="1" in="SourceGraphic" result="flood"/><feGaussianBlur id="feGaussianBlur607" in="SourceGraphic" result="blur" stdDeviation=".5"/><feOffset id="feOffset607" dx=".5" dy=".5" in="blur" result="offset"/><feComposite id="feComposite608" in="flood" in2="offset" operator="out" result="comp1"/><feComposite id="feComposite609" in="comp1" in2="SourceGraphic" operator="atop" result="comp2"/></filter><linearGradient id="linearGradient1" x1="126.362" x2="172.849" y1="70.301" y2="116.787" gradientUnits="userSpaceOnUse" xlink:href="#linearGradient356"/></defs><g id="g1" transform="translate(-126.36228,-70.300493)"><path id="path1" d="m 146.41484,75.44398 c -1.08623,-0.002 -2.2577,0.0375 -3.52692,0.10128 l 0.66921,2.80688 -7.25847,10.64343 2.87372,2.4927 c 1.07307,-1.4094 2.80872,-2.09747 4.41627,-2.74612 2.01865,-0.81453 3.47448,-1.19388 5.8384,-2.96655 -1.95829,6.9919 -10.05492,6.74583 -10.19524,13.26022 -0.0475,2.20347 0.63262,4.2596 1.81178,5.61361 -3.37043,0.68018 -5.79645,3.63871 -5.80327,7.07708 v 0.20671 h 28.7383 v -0.20671 c -1.2e-4,-3.99548 -3.23922,-7.23434 -7.2347,-7.23418 h -6.07508 l 7.36906,-1.97456 c 1.03972,-1.77918 1.71687,-3.85858 1.94923,-5.92378 0.97115,-8.63123 -0.33214,-16.37911 -5.74383,-19.54803 -2.07667,-1.21602 -4.56981,-1.59572 -7.82846,-1.60198 z" style="font-variation-settings:normal;opacity:1;fill:none;fill-opacity:1;stroke:#fff;stroke-width:2;stroke-linecap:round;stroke-linejoin:miter;stroke-miterlimit:4;stroke-dasharray:none;stroke-dashoffset:0;stroke-opacity:.5;paint-order:stroke markers fill;stop-color:#000;stop-opacity:1"/><path id="path669" d="m 146.41484,75.44398 c -1.08623,-0.002 -2.2577,0.0375 -3.52692,0.10128 l 0.66921,2.80688 -7.25847,10.64343 2.87372,2.4927 c 1.07307,-1.4094 2.80872,-2.09747 4.41627,-2.74612 2.01865,-0.81453 3.47448,-1.19388 5.8384,-2.96655 -1.95829,6.9919 -10.05492,6.74583 -10.19524,13.26022 -0.0475,2.20347 0.63262,4.2596 1.81178,5.61361 -3.37043,0.68018 -5.79645,3.63871 -5.80327,7.07708 v 0.20671 h 28.7383 v -0.20671 c -1.2e-4,-3.99548 -3.23922,-7.23434 -7.2347,-7.23418 h -6.07508 l 7.36906,-1.97456 c 1.03972,-1.77918 1.71687,-3.85858 1.94923,-5.92378 0.97115,-8.63123 -0.33214,-16.37911 -5.74383,-19.54803 -2.07667,-1.21602 -4.56981,-1.59572 -7.82846,-1.60198 z" style="font-variation-settings:normal;opacity:1;vector-effect:none;fill:url(#linearGradient1);fill-opacity:1;stroke:none;stroke-width:1;stroke-linecap:round;stroke-linejoin:miter;stroke-miterlimit:4;stroke-dasharray:none;stroke-dashoffset:0;stroke-opacity:.459816;-inkscape-stroke:none;paint-order:stroke markers fill;filter:url(#filter609);stop-color:#000;stop-opacity:1"/></g></svg>