<svg xmlns="http://www.w3.org/2000/svg" xmlns:svg="http://www.w3.org/2000/svg" xmlns:xlink="http://www.w3.org/1999/xlink" id="svg1" width="175.696" height="175.696" version="1.1" viewBox="0 0 46.486 46.486"><defs id="defs1"><linearGradient id="linearGradient362"><stop style="stop-color:#454f54;stop-opacity:1" id="stop361" offset="0"/><stop style="stop-color:#110d26;stop-opacity:1" id="stop362" offset="1"/></linearGradient><linearGradient id="linearGradient94" x1="61.768" x2="108.263" y1="19.803" y2="66.289" gradientUnits="userSpaceOnUse" xlink:href="#linearGradient362"/><filter style="color-interpolation-filters:sRGB" id="filter603" width="1.136" height="1.08" x="-.056" y="-.033"><feFlood id="feFlood601" flood-color="#000" flood-opacity="1" in="SourceGraphic" result="flood"/><feGaussianBlur id="feGaussianBlur601" in="SourceGraphic" result="blur" stdDeviation=".5"/><feOffset id="feOffset601" dx=".5" dy=".5" in="blur" result="offset"/><feComposite id="feComposite602" in="flood" in2="offset" operator="out" result="comp1"/><feComposite id="feComposite603" in="comp1" in2="SourceGraphic" operator="atop" result="comp2"/></filter></defs><g id="g663" transform="matrix(0.91313381,0,0,0.92495905,-70.918386,-18.899087)" style="stroke-width:1.08811"><path id="path656" d="m 103.11929,29.085047 a 5.8761053,5.8761053 0 0 0 -5.87613,5.876127 5.8761053,5.8761053 0 0 0 1.606104,4.018876 7.2344021,7.2344021 0 0 0 -5.558834,7.020243 v 0.206706 h 5.769157 c -0.197769,11.232233 -6.586678,8.799438 -6.586678,19.292879 h 10.646891 10.64638 c 0,-10.039994 -5.85028,-8.242283 -6.52932,-17.905883 l -5.17591,-1.386996 h 5.11855 5.76864 v -0.206706 a 7.2344021,7.2344021 0 0 0 -5.53557,-7.029545 5.8761053,5.8761053 0 0 0 1.58284,-4.009574 5.8761053,5.8761053 0 0 0 -5.87612,-5.876127 z" style="font-variation-settings:normal;fill:none;fill-opacity:1;stroke:#fff;stroke-width:2.17621;stroke-linecap:round;stroke-linejoin:miter;stroke-miterlimit:4;stroke-dasharray:none;stroke-dashoffset:0;stroke-opacity:.5;paint-order:stroke markers fill;stop-color:#000"/><path id="path19" d="m 85.011445,25.073464 a 5.8761053,5.8761053 0 0 0 -5.876127,5.876127 5.8761053,5.8761053 0 0 0 1.606104,4.018876 7.2344021,7.2344021 0 0 0 -5.558834,7.020243 v 0.206706 h 5.769157 c -0.197769,11.232233 -6.586678,8.799438 -6.586678,19.292879 H 85.011962 95.65834 c 0,-10.039994 -5.850287,-8.242283 -6.529317,-17.905883 l -5.175911,-1.386996 h 5.11855 5.768641 V 41.98871 a 7.2344021,7.2344021 0 0 0 -5.53558,-7.029545 5.8761053,5.8761053 0 0 0 1.582849,-4.009574 5.8761053,5.8761053 0 0 0 -5.876127,-5.876127 z" transform="translate(18.107842,4.0115826)" style="font-variation-settings:normal;opacity:1;fill:url(#linearGradient94);fill-opacity:1;stroke:none;stroke-width:1.08811;stroke-linecap:round;stroke-linejoin:miter;stroke-miterlimit:4;stroke-dasharray:none;stroke-dashoffset:0;stroke-opacity:.459816;paint-order:stroke markers fill;filter:url(#filter603);stop-color:#000;stop-opacity:1"/></g></svg>