<svg xmlns="http://www.w3.org/2000/svg" xmlns:svg="http://www.w3.org/2000/svg" xmlns:xlink="http://www.w3.org/1999/xlink" id="svg1" width="175.696" height="175.696" version="1.1" viewBox="0 0 46.486 46.486"><defs id="defs1"><linearGradient id="linearGradient360"><stop style="stop-color:#454f54;stop-opacity:1" id="stop359" offset="0"/><stop style="stop-color:#110d26;stop-opacity:1" id="stop360" offset="1"/></linearGradient><linearGradient id="linearGradient111" x1="61.768" x2="108.254" y1="27.326" y2="72.745" gradientUnits="userSpaceOnUse" xlink:href="#linearGradient360"/><filter style="color-interpolation-filters:sRGB" id="filter601" width="1.101" height="1.083" x="-.042" y="-.035"><feFlood id="feFlood600" flood-color="#000" flood-opacity="1" in="SourceGraphic" result="flood"/><feGaussianBlur id="feGaussianBlur600" in="SourceGraphic" result="blur" stdDeviation=".5"/><feOffset id="feOffset600" dx=".5" dy=".5" in="blur" result="offset"/><feComposite id="feComposite600" in="flood" in2="offset" operator="out" result="comp1"/><feComposite id="feComposite601" in="comp1" in2="SourceGraphic" operator="atop" result="comp2"/></filter></defs><g id="g664" transform="translate(-33.389762,-23.814237)"><path id="path657" d="m 56.512313,29.905667 c -0.516466,0 -2.02283,0.02324 -2.970362,0.05995 v 3.620451 h -0.326595 c -1.911112,-0.0073 -3.505877,-1.461303 -3.68918,-3.363618 -3.473048,0.311836 -5.675106,0.741553 -5.675106,0.741553 v 0.595312 c 0.01149,3.391328 2.053327,6.445844 5.18263,7.753015 l -2.047421,19.200379 c -2.83712,1.050348 -4.721067,3.755159 -4.722709,6.780465 v 0.206706 h 28.738298 v -0.206708 c -1.21e-4,-3.995279 -3.238905,-7.234063 -7.234184,-7.234183 h -4.613155 l 6.892086,-1.8464 -1.590601,-14.687476 -5.720581,-1.532722 h 2.245858 c 4.657433,-6.6e-5 8.433077,-3.775645 8.433077,-8.433078 v -0.595312 c 0,0 -2.218972,-0.415684 -5.662187,-0.726053 -0.182316,1.898137 -1.776624,3.347284 -3.683496,3.348115 h -0.344682 v -3.611149 c -1.024872,-0.0423 -2.653771,-0.06925 -3.21169,-0.06925 -0.557919,0 0.516466,3e-6 0,3e-6 z" style="font-variation-settings:normal;fill:none;fill-opacity:1;stroke:#fff;stroke-width:2;stroke-linecap:round;stroke-linejoin:miter;stroke-miterlimit:4;stroke-dasharray:none;stroke-dashoffset:0;stroke-opacity:.5;paint-order:stroke markers fill;stop-color:#000"/><path id="path24" d="m 84.89073,33.278 c -1.032932,0 -2.02283,0.02271 -2.970362,0.05857 v 3.537303 h -0.326595 c -1.911112,-0.0071 -3.505878,-1.427743 -3.68918,-3.286369 -3.473048,0.304678 -5.675106,0.724526 -5.675106,0.724526 v 0.58164 c 0.01149,3.313442 2.053327,6.297807 5.18263,7.574958 l -2.047421,18.75942 c -2.83712,1.026225 -4.721067,3.668917 -4.722709,6.624744 V 68.05475 H 99.380285 V 67.85279 C 99.380164,63.949267 96.14138,60.784866 92.146101,60.784748 H 87.532946 L 94.425032,58.980753 92.834431,44.630592 87.11385,43.13307 h 2.245858 c 4.657432,-6.5e-5 8.433077,-3.688932 8.433077,-8.239402 v -0.58164 c 0,0 -2.218972,-0.406138 -5.662187,-0.709379 -0.182315,1.854545 -1.776624,3.27041 -3.683496,3.271222 H 88.10242 V 33.345656 C 87.077548,33.304328 86.006568,33.278 84.89073,33.278 Z" transform="matrix(1,0,0,1.023506,-28.378417,-4.1545654)" style="font-variation-settings:normal;opacity:1;fill:url(#linearGradient111);fill-opacity:1;stroke:none;stroke-width:.98845;stroke-linecap:round;stroke-linejoin:miter;stroke-miterlimit:4;stroke-dasharray:none;stroke-dashoffset:0;stroke-opacity:.459816;paint-order:stroke markers fill;filter:url(#filter601);stop-color:#000;stop-opacity:1"/></g></svg>