<svg xmlns="http://www.w3.org/2000/svg" xmlns:svg="http://www.w3.org/2000/svg" xmlns:xlink="http://www.w3.org/1999/xlink" id="svg1" width="175.696" height="175.696" version="1.1" viewBox="0 0 46.486 46.486"><defs id="defs1"><linearGradient id="linearGradient344"><stop style="stop-color:#fff;stop-opacity:1" id="stop343" offset="0"/><stop style="stop-color:#c5beb9;stop-opacity:1" id="stop344" offset="1"/></linearGradient><filter style="color-interpolation-filters:sRGB" id="filter650" width="1.101" height="1.078" x="-.042" y="-.032"><feFlood id="feFlood648" flood-color="#000" flood-opacity=".745" in="SourceGraphic" result="flood"/><feGaussianBlur id="feGaussianBlur648" in="SourceGraphic" result="blur" stdDeviation=".5"/><feOffset id="feOffset648" dx=".5" dy=".5" in="blur" result="offset"/><feComposite id="feComposite649" in="flood" in2="offset" operator="in" result="comp1"/><feComposite id="feComposite650" in="SourceGraphic" in2="comp1" operator="over" result="comp2"/></filter><linearGradient id="linearGradient23" x1="160.545" x2="201.227" y1="32.997" y2="72.745" gradientTransform="matrix(1,0,0,1.023506,-154.74072,-27.96881)" gradientUnits="userSpaceOnUse" xlink:href="#linearGradient344"/></defs><path id="path119" d="m 19.766769,7.7559242 c 0.003,1.07199 0.50061,2.08259 1.34824,2.7388498 -4.18467,4.7703 -8.24963,10.2497 -8.24963,15.61507 0,2.43935 1.56795,5.56156 3.48351,8.1349 h -0.2403 c -3.99548,-1.6e-4 -7.2345801,3.23871 -7.2347001,7.23419 v 0.2067 H 37.612189 v -0.2067 c -1.2e-4,-3.99528 -3.2389,-7.23407 -7.23418,-7.23419 h -6.07508 l 7.12204,-1.90841 c 1.28218,-2.10885 2.19625,-4.36632 2.19625,-6.22649 0,-4.43724 -2.78303,-8.95253 -6.11229,-13.08086 -1.81013,2.99847 -3.12986,5.93957 -3.8225,8.71162 -0.56843,2.27492 -0.55841,4.19814 -0.56276,4.18424 -0.70223,-2.24281 -1.38144,-5.98668 -1.00201,-8.30337 0.39757,-2.42744 1.81503,-4.77931 3.0749,-6.56143 1.25988,-1.7821198 1.52007,-2.5317898 1.52296,-3.3044398 -1.8e-4,-1.920024 -1.55677,-3.476384 -3.47653,-3.476084 -1.91977,3.1e-4 -3.47604,1.55658 -3.47622,3.476404 z" style="font-variation-settings:normal;fill:none;fill-opacity:1;stroke:#000;stroke-width:2;stroke-linecap:round;stroke-linejoin:miter;stroke-miterlimit:4;stroke-dasharray:none;stroke-dashoffset:0;stroke-opacity:.4;paint-order:stroke markers fill;stop-color:#000"/><path id="path5" d="m 19.766769,7.7559242 c 0.003,1.07199 0.50061,2.08259 1.34824,2.7388498 -4.18467,4.7703 -8.24963,10.2497 -8.24963,15.61507 0,2.43935 1.56795,5.56156 3.48351,8.1349 h -0.2403 c -3.99548,-1.6e-4 -7.2345801,3.23871 -7.2347001,7.23419 v 0.2067 H 37.612189 v -0.2067 c -1.2e-4,-3.99528 -3.2389,-7.23407 -7.23418,-7.23419 h -6.07508 l 7.12204,-1.90841 c 1.28218,-2.10885 2.19625,-4.36632 2.19625,-6.22649 0,-4.43724 -2.78303,-8.95253 -6.11229,-13.08086 -1.81013,2.99847 -3.12986,5.93957 -3.8225,8.71162 -0.56843,2.27492 -0.55841,4.19814 -0.56276,4.18424 -0.70223,-2.24281 -1.38144,-5.98668 -1.00201,-8.30337 0.39757,-2.42744 1.81503,-4.77931 3.0749,-6.56143 1.25988,-1.7821198 1.52007,-2.5317898 1.52296,-3.3044398 -1.8e-4,-1.920024 -1.55677,-3.476384 -3.47653,-3.476084 -1.91977,3.1e-4 -3.47604,1.55658 -3.47622,3.476404 z" style="font-variation-settings:normal;fill:url(#linearGradient23);fill-opacity:1;stroke:none;stroke-width:2;stroke-linecap:round;stroke-linejoin:miter;stroke-miterlimit:4;stroke-dasharray:none;stroke-dashoffset:0;stroke-opacity:.4;paint-order:stroke markers fill;filter:url(#filter650);stop-color:#000"/></svg>