<svg xmlns="http://www.w3.org/2000/svg" xmlns:svg="http://www.w3.org/2000/svg" xmlns:xlink="http://www.w3.org/1999/xlink" id="svg1" width="175.696" height="175.696" version="1.1" viewBox="0 0 46.486 46.486"><defs id="defs1"><linearGradient id="linearGradient350"><stop style="stop-color:#fff;stop-opacity:1" id="stop349" offset="0"/><stop style="stop-color:#c5beb9;stop-opacity:1" id="stop350" offset="1"/></linearGradient><filter style="color-interpolation-filters:sRGB" id="filter656" width="1.081" height="1.076" x="-.033" y="-.032"><feFlood id="feFlood654" flood-color="#000" flood-opacity=".745" in="SourceGraphic" result="flood"/><feGaussianBlur id="feGaussianBlur654" in="SourceGraphic" result="blur" stdDeviation=".5"/><feOffset id="feOffset654" dx=".5" dy=".5" in="blur" result="offset"/><feComposite id="feComposite655" in="flood" in2="offset" operator="in" result="comp1"/><feComposite id="feComposite656" in="SourceGraphic" in2="comp1" operator="over" result="comp2"/></filter><linearGradient id="linearGradient22" x1="65.336" x2="108.254" y1="76.231" y2="118.164" gradientTransform="matrix(1,0,0,1.023506,-61.768163,-74.455046)" gradientUnits="userSpaceOnUse" xlink:href="#linearGradient350"/></defs><path id="path126" d="m 23.242975,3.6836343 c -1.92002,1.7e-4 -3.47638,1.55677 -3.47627,3.476794 0.003,1.12667 0.55206,2.18197 1.47277,2.83135 -0.56316,0.2850697 -1.00149,0.6690697 -1.43247,1.0448997 -0.0662,0.0577 -0.13091,0.11799 -0.19585,0.17776 -1.16995,-0.45588 -2.39441,-0.73324 -3.62665,-0.80873 -1.71087,-0.10481 -3.4345,0.17458 -5.04104,0.88263 -3.2130699,1.4161 -5.6756179,4.92357 -5.6756179,9.32243 0,3.24785 1.54121,6.51824 4.150128,9.57616 1.2441199,1.45821 2.7576199,2.85409 4.5278899,4.10155 -3.52282,0.54398 -6.1243999,3.57298 -6.1303699,7.13755 v 0.20671 H 38.670455 v -0.20671 c -1.2e-4,-3.99528 -3.2389,-7.23406 -7.23418,-7.23418 h -3.84059 l 7.57059,-2.02882 c 0.68999,-0.64002 1.32623,-1.301 1.90221,-1.9761 2.60893,-3.05792 4.14859,-6.32831 4.14859,-9.57616 0,-4.39886 -2.461,-7.90633 -5.67408,-9.32243 -1.60653,-0.70805 -3.33017,-0.98744 -5.04103,-0.88263 -1.23237,0.0755 -2.4566,0.35277 -3.62665,0.80873 -0.0649,-0.0597 -0.12922,-0.1201 -0.19534,-0.17776 -0.43085,-0.37573 -0.86952,-0.75986 -1.43299,-1.0448997 0.92071,-0.64938 1.46964,-1.70468 1.47278,-2.83135 1.1e-4,-1.920224 -1.55657,-3.476904 -3.47679,-3.476794 z m -5.2e-4,12.4953637 c 0.20828,0.24346 0.38884,0.39706 0.60927,0.74414 0.80802,1.27227 1.48053,3.09836 1.48053,4.82813 0,1.73744 -0.96014,4.73029 -2.0898,7.68739 -1.12952,-2.95685 -2.08824,-5.95011 -2.08824,-7.68739 0,-1.72977 0.67251,-3.55586 1.48053,-4.82813 0.22014,-0.34663 0.39964,-0.50084 0.60771,-0.74414 z m -8.2305,0.24753 c 0.37204,-0.0153 0.75992,0.009 1.14928,0.0661 -0.60981,1.57001 -1.00666,3.34301 -1.00666,5.25859 0,2.21492 0.48625,4.56319 1.18443,6.81974 -0.90151,-0.73247 -1.69337,-1.50122 -2.35645,-2.27842 -1.91314,-2.24238 -2.71508,-4.59135 -2.71508,-5.68182 0,-2.47982 0.84108,-3.27872 2.096,-3.83181 0.47059,-0.2074 1.03909,-0.32732 1.64848,-0.35243 z m 16.46256,0 c 0.60938,0.0251 1.17788,0.14503 1.64848,0.35243 1.25492,0.55309 2.09393,1.35199 2.09393,3.83181 0,1.09047 -0.79988,3.43944 -2.71302,5.68182 -0.66313,0.77726 -1.45483,1.54589 -2.35644,2.27842 0.69817,-2.25655 1.18442,-4.60482 1.18442,-6.81974 0,-1.9156 -0.39684,-3.68856 -1.00666,-5.25859 0.38939,-0.057 0.77721,-0.0815 1.14929,-0.0661 z" style="color:#000;font-variation-settings:normal;fill:none;fill-opacity:1;stroke:#000;stroke-width:2;stroke-linecap:round;stroke-linejoin:miter;stroke-miterlimit:4;stroke-dasharray:none;stroke-dashoffset:0;stroke-opacity:.4;paint-order:stroke fill markers;stop-color:#000"/><path id="path8" d="m 23.242975,3.6836343 c -1.92002,1.7e-4 -3.47638,1.55677 -3.47627,3.476794 0.003,1.12667 0.55206,2.18197 1.47277,2.83135 -0.56316,0.2850697 -1.00149,0.6690697 -1.43247,1.0448997 -0.0662,0.0577 -0.13091,0.11799 -0.19585,0.17776 -1.16995,-0.45588 -2.39441,-0.73324 -3.62665,-0.80873 -1.71087,-0.10481 -3.4345,0.17458 -5.04104,0.88263 -3.2130699,1.4161 -5.6756169,4.92357 -5.6756169,9.32243 0,3.24785 1.54121,6.51824 4.150127,9.57616 1.2441199,1.45821 2.7576199,2.85409 4.5278899,4.10155 -3.52282,0.54398 -6.1243999,3.57298 -6.1303699,7.13755 v 0.20671 H 38.670455 v -0.20671 c -1.2e-4,-3.99528 -3.2389,-7.23406 -7.23418,-7.23418 h -3.84059 l 7.57059,-2.02882 c 0.68999,-0.64002 1.32623,-1.301 1.90221,-1.9761 2.60893,-3.05792 4.14859,-6.32831 4.14859,-9.57616 0,-4.39886 -2.461,-7.90633 -5.67408,-9.32243 -1.60653,-0.70805 -3.33017,-0.98744 -5.04103,-0.88263 -1.23237,0.0755 -2.4566,0.35277 -3.62665,0.80873 -0.0649,-0.0597 -0.12922,-0.1201 -0.19534,-0.17776 -0.43085,-0.37573 -0.86952,-0.75986 -1.43299,-1.0448997 0.92071,-0.64938 1.46964,-1.70468 1.47278,-2.83135 1.1e-4,-1.920224 -1.55657,-3.476904 -3.47679,-3.476794 z m -5.2e-4,12.4953637 c 0.20828,0.24346 0.38884,0.39706 0.60927,0.74414 0.80802,1.27227 1.48053,3.09836 1.48053,4.82813 0,1.73744 -0.96014,4.73029 -2.0898,7.68739 -1.12952,-2.95685 -2.08824,-5.95011 -2.08824,-7.68739 0,-1.72977 0.67251,-3.55586 1.48053,-4.82813 0.22014,-0.34663 0.39964,-0.50084 0.60771,-0.74414 z m -8.2305,0.24753 c 0.37204,-0.0153 0.75992,0.009 1.14928,0.0661 -0.60981,1.57001 -1.00666,3.34301 -1.00666,5.25859 0,2.21492 0.48625,4.56319 1.18443,6.81974 -0.90151,-0.73247 -1.69337,-1.50122 -2.35645,-2.27842 -1.91314,-2.24238 -2.71508,-4.59135 -2.71508,-5.68182 0,-2.47982 0.84108,-3.27872 2.096,-3.83181 0.47059,-0.2074 1.03909,-0.32732 1.64848,-0.35243 z m 16.46256,0 c 0.60938,0.0251 1.17788,0.14503 1.64848,0.35243 1.25492,0.55309 2.09393,1.35199 2.09393,3.83181 0,1.09047 -0.79988,3.43944 -2.71302,5.68182 -0.66313,0.77726 -1.45483,1.54589 -2.35644,2.27842 0.69817,-2.25655 1.18442,-4.60482 1.18442,-6.81974 0,-1.9156 -0.39684,-3.68856 -1.00666,-5.25859 0.38939,-0.057 0.77721,-0.0815 1.14929,-0.0661 z" style="color:#000;font-variation-settings:normal;fill:url(#linearGradient22);fill-opacity:1;stroke:none;stroke-width:2;stroke-linecap:round;stroke-linejoin:miter;stroke-miterlimit:4;stroke-dasharray:none;stroke-dashoffset:0;stroke-opacity:.4;paint-order:stroke fill markers;filter:url(#filter656);stop-color:#000"/></svg>