<svg xmlns="http://www.w3.org/2000/svg" xmlns:svg="http://www.w3.org/2000/svg" xmlns:xlink="http://www.w3.org/1999/xlink" id="svg1" width="175.696" height="175.696" version="1.1" viewBox="0 0 46.486 46.486"><defs id="defs1"><linearGradient id="linearGradient134"><stop style="stop-color:#fff;stop-opacity:1" id="stop133" offset="0"/><stop style="stop-color:#c5beb9;stop-opacity:1" id="stop134" offset="1"/></linearGradient><filter style="color-interpolation-filters:sRGB" id="filter652" width="1.101" height="1.079" x="-.042" y="-.033"><feFlood id="feFlood650" flood-color="#000" flood-opacity=".745" in="SourceGraphic" result="flood"/><feGaussianBlur id="feGaussianBlur650" in="SourceGraphic" result="blur" stdDeviation=".5"/><feOffset id="feOffset650" dx=".5" dy=".5" in="blur" result="offset"/><feComposite id="feComposite651" in="flood" in2="offset" operator="in" result="comp1"/><feComposite id="feComposite652" in="SourceGraphic" in2="comp1" operator="over" result="comp2"/></filter><linearGradient id="linearGradient21" x1="159.324" x2="201.227" y1="77.224" y2="118.164" gradientTransform="matrix(1,0,0,1.023506,-154.7407,-74.45506)" gradientUnits="userSpaceOnUse" xlink:href="#linearGradient134"/></defs><path id="path122" d="m 20.052554,5.1434802 c -1.08623,-0.002 -2.2577,0.0375 -3.52692,0.10128 l 0.66921,2.806884 -7.2584697,10.6434298 2.8737197,2.4927 c 1.07307,-1.4094 2.80872,-2.09747 4.41627,-2.74612 2.01865,-0.81453 3.47448,-1.19388 5.8384,-2.96655 -1.95829,6.9919 -10.05492,6.74583 -10.19524,13.26022 -0.0475,2.20347 0.63262,4.2596 1.81178,5.61361 -3.37043,0.68018 -5.7964497,3.63871 -5.8032697,7.07708 v 0.20671 H 37.616334 v -0.20671 c -1.2e-4,-3.99548 -3.23922,-7.23434 -7.2347,-7.23418 h -6.07508 l 7.36906,-1.97456 c 1.03972,-1.77918 1.71687,-3.85858 1.94923,-5.92378 0.97115,-8.63123 -0.33214,-16.3791098 -5.74383,-19.5480338 -2.07667,-1.21602 -4.56981,-1.59572 -7.82846,-1.60198 z" style="font-variation-settings:normal;fill:none;fill-opacity:1;stroke:#000;stroke-width:2;stroke-linecap:round;stroke-linejoin:miter;stroke-miterlimit:4;stroke-dasharray:none;stroke-dashoffset:0;stroke-opacity:.4;paint-order:stroke markers fill;stop-color:#000"/><path id="path6" d="m 20.052554,5.1434802 c -1.08623,-0.002 -2.2577,0.0375 -3.52692,0.10128 l 0.66921,2.806884 -7.2584697,10.6434298 2.8737197,2.4927 c 1.07307,-1.4094 2.80872,-2.09747 4.41627,-2.74612 2.01865,-0.81453 3.47448,-1.19388 5.8384,-2.96655 -1.95829,6.9919 -10.05492,6.74583 -10.19524,13.26022 -0.0475,2.20347 0.63262,4.2596 1.81178,5.61361 -3.37043,0.68018 -5.7964497,3.63871 -5.8032697,7.07708 v 0.20671 H 37.616334 v -0.20671 c -1.2e-4,-3.99548 -3.23922,-7.23434 -7.2347,-7.23418 h -6.07508 l 7.36906,-1.97456 c 1.03972,-1.77918 1.71687,-3.85858 1.94923,-5.92378 0.97115,-8.63123 -0.33214,-16.3791098 -5.74383,-19.5480338 -2.07667,-1.21602 -4.56981,-1.59572 -7.82846,-1.60198 z" style="font-variation-settings:normal;fill:url(#linearGradient21);fill-opacity:1;stroke:none;stroke-width:2;stroke-linecap:round;stroke-linejoin:miter;stroke-miterlimit:4;stroke-dasharray:none;stroke-dashoffset:0;stroke-opacity:.4;paint-order:stroke markers fill;filter:url(#filter652);stop-color:#000"/></svg>