<svg xmlns="http://www.w3.org/2000/svg" xmlns:svg="http://www.w3.org/2000/svg" xmlns:xlink="http://www.w3.org/1999/xlink" id="svg1" width="175.696" height="175.696" version="1.1" viewBox="0 0 46.486 46.486"><defs id="defs1"><linearGradient id="linearGradient346"><stop style="stop-color:#fff;stop-opacity:1" id="stop345" offset="0"/><stop style="stop-color:#c5beb9;stop-opacity:1" id="stop346" offset="1"/></linearGradient><filter style="color-interpolation-filters:sRGB" id="filter648" width="1.136" height="1.08" x="-.056" y="-.033"><feFlood id="feFlood646" flood-color="#000" flood-opacity=".745" in="SourceGraphic" result="flood"/><feGaussianBlur id="feGaussianBlur646" in="SourceGraphic" result="blur" stdDeviation=".5"/><feOffset id="feOffset646" dx=".5" dy=".5" in="blur" result="offset"/><feComposite id="feComposite647" in="flood" in2="offset" operator="in" result="comp1"/><feComposite id="feComposite648" in="SourceGraphic" in2="comp1" operator="over" result="comp2"/></filter><linearGradient id="linearGradient19" x1="114.904" x2="154.749" y1="33.816" y2="72.745" gradientTransform="matrix(1,0,0,1.023506,-28.378417,88.817948)" gradientUnits="userSpaceOnUse" xlink:href="#linearGradient346"/></defs><path id="path117" d="m 23.243271,8.0033649 c -2.963396,-9.2e-6 -5.365706,2.4334101 -5.365693,5.4351801 0.0042,1.382971 0.528642,2.712322 1.466588,3.71729 -2.970034,0.71627 -5.068598,3.400861 -5.075959,6.493443 v 0.19119 h 5.268012 C 19.35563,34.22982 13.521701,31.979589 13.521701,41.685591 h 9.722036 9.721569 c 0,-9.286579 -5.342088,-7.623771 -5.962133,-16.562205 l -4.726308,-1.282918 h 4.673921 5.26755 v -0.19119 c -9.14e-4,-3.089464 -2.090045,-5.776563 -5.054726,-6.502045 0.928201,-1.006125 1.44477,-2.331628 1.445345,-3.708688 9e-6,-3.00177 -2.402291,-5.4351893 -5.365684,-5.4351801 z" style="font-variation-settings:normal;fill:none;fill-opacity:1;stroke:#000;stroke-width:2;stroke-linecap:round;stroke-linejoin:miter;stroke-miterlimit:4;stroke-dasharray:none;stroke-dashoffset:0;stroke-opacity:.4;paint-order:stroke markers fill;stop-color:#000"/><path id="path3" d="m 103.11929,122.05756 c -3.245303,-10e-6 -5.876144,2.63083 -5.87613,5.87613 0.0046,1.49517 0.578931,2.93237 1.606104,4.01887 -3.252573,0.77438 -5.550773,3.67677 -5.558834,7.02025 v 0.2067 h 5.769157 c -0.197769,11.23223 -6.586678,8.79944 -6.586678,19.29288 h 10.646891 10.64638 c 0,-10.03999 -5.85028,-8.24228 -6.52931,-17.90588 l -5.17592,-1.387 h 5.11855 5.76865 v -0.2067 c -0.001,-3.34011 -2.28887,-6.24521 -5.53558,-7.02955 1.0165,-1.08775 1.58221,-2.52079 1.58284,-4.00957 10e-6,-3.2453 -2.63082,-5.87614 -5.87612,-5.87613 z" transform="matrix(0.91313381,0,0,0.92495905,-70.918439,-104.89488)" style="font-variation-settings:normal;fill:url(#linearGradient19);fill-opacity:1;stroke:none;stroke-width:2.17621;stroke-linecap:round;stroke-linejoin:miter;stroke-miterlimit:4;stroke-dasharray:none;stroke-dashoffset:0;stroke-opacity:.4;paint-order:stroke markers fill;filter:url(#filter648);stop-color:#000"/></svg>